<?xml version="1.0" encoding="utf-8"?>
<!-- Generator: Adobe Illustrator 16.0.0, SVG Export Plug-In . SVG Version: 6.00 Build 0)  -->
<!DOCTYPE svg PUBLIC "-//W3C//DTD SVG 1.1//EN" "http://www.w3.org/Graphics/SVG/1.1/DTD/svg11.dtd">
<svg version="1.1" id="Layer_1" xmlns="http://www.w3.org/2000/svg" xmlns:xlink="http://www.w3.org/1999/xlink" x="0px" y="0px"
	 width="52px" height="52px" viewBox="-2 -25 52 52" enable-background="new -2 -25 52 52" xml:space="preserve">
<rect x="-2" y="-25" fill="#346398" width="52" height="52"/>
<path fill="#FFFFFF" d="M39.445,12.557l-7.801-6.633c-0.806-0.726-1.669-1.061-2.365-1.027c1.839-2.158,2.953-4.955,2.953-8.014
	c0-6.822-5.527-12.35-12.35-12.35c-6.821,0-12.349,5.528-12.349,12.35c0,6.821,5.528,12.35,12.349,12.35
	c3.059,0,5.857-1.111,8.014-2.954c-0.031,0.698,0.302,1.56,1.025,2.367l6.635,7.8c1.138,1.262,2.992,1.369,4.126,0.238
	C40.813,15.552,40.709,13.694,39.445,12.557L39.445,12.557z M19.883,5.116c-4.547,0-8.233-3.686-8.233-8.233
	c0-4.548,3.686-8.234,8.233-8.234s8.234,3.686,8.234,8.234C28.117,1.43,24.432,5.116,19.883,5.116z"/>
</svg>
